<svg xmlns="http://www.w3.org/2000/svg" viewBox="0 0 766.12 411.79"><defs><style>.cls-1{fill:#d6ba61;}.cls-2{fill:#ad8c32;}.cls-3{fill:#31af31;}.cls-4{fill:#c64747;}.cls-5{fill:#666;}.cls-6{fill:#7e7e7f;}</style></defs><g id="Layer_2" data-name="Layer 2"><g id="Layer_1-2" data-name="Layer 1"><rect class="cls-1" x="475.2" y="335.36" width="290.92" height="76.43"/><path class="cls-2" d="M614.12,335.36h-7.31c-2.52,0-2.69-4.79-2.69-7.31-.43-4.13.76-8.8.33-12.93-.2-1.93-2-3.32-2.21-5.25a4.64,4.64,0,0,1,1.34-3.22,4.55,4.55,0,0,1,3.23-1.34h7.31a4.57,4.57,0,0,1,4.57,4.56s-.55,5.45-.57,5.47c-2.73,2-1.5,14.66-1.52,14.81A4,4,0,0,1,614.12,335.36Z"/><path class="cls-3" d="M604.84,270.91c5.77,14.17,3.7,28.4-4.61,31.78s-19.72-5.36-25.49-19.52-12.92-51.05-4.61-54.43S599.07,256.75,604.84,270.91Z"/><path class="cls-3" d="M644.89,288.66c-7.74,11.85-19.64,17.77-26.59,13.23s-6.32-17.82,1.42-29.67,32-36.71,39-32.17S652.63,276.82,644.89,288.66Z"/><rect class="cls-2" x="79.84" y="164.97" width="260.85" height="81.66" rx="12.03"/><rect class="cls-4" y="148.44" width="117.91" height="114.72" rx="12.03"/><polygon class="cls-5" points="424.2 205.8 210.26 53.12 210.26 358.48 424.2 205.8"/><polygon class="cls-6" points="210.44 54.05 362.1 205.71 210.26 357.55 264.31 411.6 416.15 259.76 416.15 259.76 470.2 205.71 264.49 0 210.44 54.05"/></g></g></svg>